<?xml version="1.0" encoding="utf-8"?>
<svg xmlns="http://www.w3.org/2000/svg" viewBox="0 0 500 500" xmlns:bx="https://boxy-svg.com">
  <defs>
    <bx:export>
      <bx:file format="svg"/>
    </bx:export>
  </defs>
  <g transform="matrix(1.31461, 0, 0, 1.31461, -60.281265, -6.543787)" style="">
    <path style="fill: none; stroke: rgb(255, 255, 255); stroke-width: 7px;" d="M 58.09 72.137 C 53.533 154.947 52.245 238.214 58.09 320.943 C 58.732 330.034 67.961 340.101 77.059 340.633 C 182.771 346.816 289.066 347.493 394.736 340.633 C 404.273 340.014 412.664 328.336 413.321 318.802 C 419.001 236.348 419.776 153.25 413.321 70.853 C 412.547 60.974 402.145 50.488 392.255 49.878 C 286.04 43.332 179.186 42.805 73.005 49.878 C 64.093 50.472 58.581 63.219 58.09 72.137 Z"/>
    <path style="fill: none; stroke: rgb(255, 255, 255); stroke-width: 7px;" d="M 88.561 74.017 L 189.486 174.942 L 82.105 282.323"/>
    <path style="fill: none; stroke: rgb(255, 255, 255); stroke-width: 7px;" d="M 232.591 281.029 L 376.114 281.029"/>
  </g>
</svg>